<svg xmlns="http://www.w3.org/2000/svg" width="24" height="24" viewBox="0 0 24 24">
  <g id="Group_230" data-name="Group 230" transform="translate(-395 -946)">
    <path id="attach_file-24px" d="M15.636,5.545V16a3.636,3.636,0,0,1-7.273,0V4.636a2.273,2.273,0,0,1,4.545,0v9.545a.909.909,0,1,1-1.818,0V5.545H9.727v8.636a2.273,2.273,0,0,0,4.545,0V4.636A3.636,3.636,0,0,0,7,4.636V16a5,5,0,0,0,10,0V5.545Z" transform="translate(395 947)"/>
    <rect id="Rectangle_919" data-name="Rectangle 919" width="24" height="24" transform="translate(395 946)" fill="none"/>
  </g>
</svg>
