<svg id="colorize-24px" xmlns="http://www.w3.org/2000/svg" width="24" height="24" viewBox="0 0 24 24">
  <path id="Path_82" data-name="Path 82" d="M0,0H24V24H0Z" fill="none"/>
  <path id="Path_83" data-name="Path 83" d="M17.66,5.41l.92.92L15.89,9.02l-.92-.92,2.69-2.69M17.67,3a1.024,1.024,0,0,0-.71.29L13.84,6.41,11.91,4.5,10.5,5.91l1.42,1.42L3,16.25V21H7.75l8.92-8.92,1.42,1.42,1.41-1.41-1.92-1.92L20.7,7.05a1,1,0,0,0,.01-1.42L18.37,3.29a1.019,1.019,0,0,0-.7-.29ZM6.92,19,5,17.08l8.06-8.06,1.92,1.92Z"/>
</svg>
