<svg xmlns="http://www.w3.org/2000/svg" width="24" height="25" viewBox="0 0 24 25">
  <g id="finish" transform="translate(3.613 4.427)">
    <path id="Path_111" data-name="Path 111" d="M30.6,29.791a3.066,3.066,0,0,0-1.984-2.867,9.662,9.662,0,0,0-18.532,0,3.059,3.059,0,0,0,.09,5.759,9.663,9.663,0,0,0,18.353.013A3.075,3.075,0,0,0,30.6,29.791ZM19.35,37.406a7.742,7.742,0,0,1-7.129-4.735,3.064,3.064,0,0,0-.09-5.785,7.739,7.739,0,0,1,14.45,0,3.064,3.064,0,0,0-.09,5.785A7.787,7.787,0,0,1,19.35,37.406Z" transform="translate(-10.464 -20.928)" fill="#231f20"/>
    <rect id="Rectangle_1105" data-name="Rectangle 1105" width="24" height="25" transform="translate(-3.613 -4.427)" fill="none"/>
  </g>
</svg>
