<svg xmlns="http://www.w3.org/2000/svg" width="24" height="24" viewBox="0 0 24 24">
  <g id="finish" transform="translate(0.195 0.389)">
    <path id="Path_112" data-name="Path 112" d="M37.794,22.609a9.128,9.128,0,0,0,.836-3.849,9.285,9.285,0,0,0-6.542-8.866A2.936,2.936,0,0,0,26.6,9.881a9.285,9.285,0,0,0-6.542,8.866A9.128,9.128,0,0,0,20.9,22.6a2.946,2.946,0,0,0,4.009,4.316,9.3,9.3,0,0,0,4.439,1.131,9.194,9.194,0,0,0,4.439-1.131,2.908,2.908,0,0,0,1.955.75,2.952,2.952,0,0,0,2.951-2.951A2.905,2.905,0,0,0,37.794,22.609ZM25.841,25.315a3.229,3.229,0,0,0,.061-.6,2.952,2.952,0,0,0-2.951-2.951c-.135,0-.271.012-.394.025a7.426,7.426,0,0,1,3.984-9.924,2.949,2.949,0,0,0,5.608.012,7.441,7.441,0,0,1,4.636,6.887,7.354,7.354,0,0,1-.652,3.037c-.123-.012-.258-.025-.394-.025a2.952,2.952,0,0,0-2.951,2.951,3.229,3.229,0,0,0,.061.6,7.339,7.339,0,0,1-3.5.885A7.491,7.491,0,0,1,25.841,25.315Z" transform="translate(-17.541 -7.016)" fill="#231f20"/>
    <rect id="Rectangle_1106" data-name="Rectangle 1106" width="24" height="24" transform="translate(-0.195 -0.389)" fill="none"/>
  </g>
</svg>
