<svg xmlns="http://www.w3.org/2000/svg" width="24" height="24" viewBox="0 0 24 24">
  <g id="Group_2023" data-name="Group 2023" transform="translate(-473 -2811)">
    <rect id="Rectangle_1921" data-name="Rectangle 1921" width="24" height="24" transform="translate(473 2811)" fill="none"/>
    <path id="Icon_awesome-network-wired" data-name="Icon awesome-network-wired" d="M20,8.25v-.5a.5.5,0,0,0-.5-.5H10.75V6H13a1,1,0,0,0,1-1V1a1,1,0,0,0-1-1H7A1,1,0,0,0,6,1V5A1,1,0,0,0,7,6H9.25V7.25H.5a.5.5,0,0,0-.5.5v.5a.5.5,0,0,0,.5.5H3.75V10H2a1,1,0,0,0-1,1v4a1,1,0,0,0,1,1H7a1,1,0,0,0,1-1V11a1,1,0,0,0-1-1H5.25V8.75h9.5V10H13a1,1,0,0,0-1,1v4a1,1,0,0,0,1,1h5a1,1,0,0,0,1-1V11a1,1,0,0,0-1-1H16.25V8.75H19.5A.5.5,0,0,0,20,8.25ZM8,4V2h4V4ZM6,14H3V12H6Zm11,0H14V12h3Z" transform="translate(475 2815)"/>
  </g>
</svg>
