<svg xmlns="http://www.w3.org/2000/svg" width="24" height="23" viewBox="0 0 24 23">
  <g id="Group_233" data-name="Group 233" transform="translate(-628 -1136)">
    <g id="Group_232" data-name="Group 232" transform="translate(632 1138)">
      <path id="Path_90" data-name="Path 90" d="M21.578,17.319l-2.3-6.9a6.3,6.3,0,1,0-10.946,0l-2.3,6.9a.6.6,0,0,0,.818.736l2.814-1.279,1.525,2.542a.6.6,0,0,0,1.084-.119L13.8,14.6,15.336,19.2a.6.6,0,0,0,.5.407.593.593,0,0,0,.065,0,.6.6,0,0,0,.514-.291l1.525-2.542,2.814,1.279a.6.6,0,0,0,.818-.736ZM13.8,2.2A5.1,5.1,0,1,1,8.7,7.3,5.108,5.108,0,0,1,13.8,2.2ZM11.547,17.582,10.417,15.7a.6.6,0,0,0-.763-.237l-2.049.931L9.2,11.6A6.286,6.286,0,0,0,12.9,13.534Zm6.408-2.12a.6.6,0,0,0-.763.237l-1.13,1.882-1.349-4.048A6.286,6.286,0,0,0,18.405,11.6L20,16.393Z" transform="translate(-6.001 -1)" stroke="#000" stroke-width="0.25"/>
    </g>
    <rect id="Rectangle_933" data-name="Rectangle 933" width="24" height="23" transform="translate(628 1136)" fill="none"/>
  </g>
</svg>
