<svg xmlns="http://www.w3.org/2000/svg" width="24" height="24" viewBox="0 0 24 24">
  <g id="Group_236" data-name="Group 236" transform="translate(-210 -1032)">
    <g id="Group_235" data-name="Group 235" transform="translate(40.465)">
      <g id="Group_234" data-name="Group 234" transform="translate(172.009 1033.551)">
        <path id="Path_93" data-name="Path 93" d="M14.746,5a.722.722,0,0,0-.651.54l-.36,1.987a7.941,7.941,0,0,0-2.118,1.191L9.742,7.99a.686.686,0,0,0-.81.277L7.084,11.292a.686.686,0,0,0,.132.838L8.7,13.452a7.273,7.273,0,0,0,0,3.025L7.215,17.8a.686.686,0,0,0-.132.845l1.848,3.025a.686.686,0,0,0,.81.27l1.876-.72A7.942,7.942,0,0,0,13.735,22.4l.36,1.987a.686.686,0,0,0,.651.547h3.544a.686.686,0,0,0,.657-.547l.36-1.987a7.947,7.947,0,0,0,2.118-1.184l1.876.72a.686.686,0,0,0,.8-.27l1.848-3.025a.687.687,0,0,0-.124-.845L24.338,16.47a7.513,7.513,0,0,0,0-3.011l1.488-1.329a.686.686,0,0,0,.124-.838L24.1,8.267a.686.686,0,0,0-.8-.277l-1.876.727a7.943,7.943,0,0,0-2.118-1.191l-.36-1.987A.686.686,0,0,0,18.289,5Zm.561,1.329h2.429l.325,1.779a.68.68,0,0,0,.457.512,6.626,6.626,0,0,1,2.374,1.343.679.679,0,0,0,.678.118l1.689-.651,1.267,2.084-1.35,1.2a.679.679,0,0,0-.2.658,6.874,6.874,0,0,1,0,3.184.679.679,0,0,0,.2.651l1.357,1.211L23.259,20.5l-1.689-.651a.679.679,0,0,0-.678.118,6.626,6.626,0,0,1-2.374,1.343.68.68,0,0,0-.457.512l-.325,1.786H15.306l-.325-1.786a.679.679,0,0,0-.457-.512,6.624,6.624,0,0,1-2.374-1.343.68.68,0,0,0-.678-.118l-1.7.651L8.509,18.422l1.357-1.2a.679.679,0,0,0,.208-.651,6.472,6.472,0,0,1,0-3.2.679.679,0,0,0-.208-.657l-1.357-1.2L9.783,9.43l1.689.651a.68.68,0,0,0,.678-.118A6.624,6.624,0,0,1,14.524,8.62a.679.679,0,0,0,.457-.512Zm1.211,3.987a4.652,4.652,0,1,0,4.651,4.652A4.662,4.662,0,0,0,16.517,10.316Zm0,1.329A3.323,3.323,0,1,1,13.2,14.968,3.313,3.313,0,0,1,16.517,11.645Z" transform="translate(-6.993 -5)" stroke="#000" stroke-width="0.25"/>
      </g>
      <rect id="Rectangle_935" data-name="Rectangle 935" width="24" height="24" transform="translate(169.535 1032)" fill="none"/>
    </g>
  </g>
</svg>
