<svg id="visibility_off-24px_1_" data-name="visibility_off-24px (1)" xmlns="http://www.w3.org/2000/svg" width="24" height="24" viewBox="0 0 24 24">
  <path id="Path_78" data-name="Path 78" d="M0,0H24V24H0ZM0,0H24V24H0ZM0,0H24V24H0ZM0,0H24V24H0Z" fill="none"/>
  <path id="Path_79" data-name="Path 79" d="M12,6a9.77,9.77,0,0,1,8.82,5.5,9.647,9.647,0,0,1-2.41,3.12l1.41,1.41A11.8,11.8,0,0,0,23,11.5,11.834,11.834,0,0,0,8.36,4.57l1.65,1.65A10.108,10.108,0,0,1,12,6ZM10.93,7.14,13,9.21a2.5,2.5,0,0,1,1.28,1.28l2.07,2.07a4.679,4.679,0,0,0,.14-1.07A4.483,4.483,0,0,0,12,7,4.244,4.244,0,0,0,10.93,7.14ZM2.01,3.87,4.69,6.55A11.738,11.738,0,0,0,1,11.5,11.827,11.827,0,0,0,12,19a11.73,11.73,0,0,0,4.32-.82l3.42,3.42,1.41-1.41L3.42,2.45Zm7.5,7.5,2.61,2.61A.5.5,0,0,1,12,14a2.5,2.5,0,0,1-2.5-2.5C9.5,11.45,9.51,11.42,9.51,11.37Zm-3.4-3.4L7.86,9.72A4.6,4.6,0,0,0,7.5,11.5a4.505,4.505,0,0,0,6.27,4.14l.98.98A10.432,10.432,0,0,1,12,17a9.77,9.77,0,0,1-8.82-5.5A9.9,9.9,0,0,1,6.11,7.97Z"/>
</svg>
