<?xml version="1.0" standalone="no"?>
<!DOCTYPE svg PUBLIC "-//W3C//DTD SVG 20010904//EN"
 "http://www.w3.org/TR/2001/REC-SVG-20010904/DTD/svg10.dtd">
<svg version="1.0" xmlns="http://www.w3.org/2000/svg"
 width="692.000000pt" height="282.000000pt" viewBox="0 0 692.000000 282.000000"
 preserveAspectRatio="xMidYMid meet">

<g transform="translate(0.000000,282.000000) scale(0.100000,-0.100000)"
fill="#000000" stroke="none">
<path d="M4710 1475 l0 -1255 259 0 260 0 3 572 c3 552 4 575 25 635 28 84 63
142 114 187 130 118 372 148 544 67 104 -48 166 -117 209 -229 20 -55 21 -74
26 -642 l5 -585 258 -3 257 -2 0 609 c0 660 -3 710 -55 848 -80 210 -274 395
-503 477 -86 31 -89 31 -282 31 -218 -1 -287 -12 -398 -67 -63 -31 -139 -96
-180 -153 l-21 -30 -1 398 0 397 -260 0 -260 0 0 -1255z"/>
<path d="M240 2182 c0 -5 29 -91 64 -193 110 -313 587 -1682 603 -1727 l15
-42 296 0 297 0 268 773 c148 424 302 868 342 985 l74 212 -251 -2 -251 -3
-236 -747 c-130 -412 -238 -748 -241 -748 -5 0 -110 327 -431 1343 l-50 157
-250 0 c-137 0 -249 -4 -249 -8z"/>
<path d="M2473 1548 c5 -697 6 -711 63 -855 124 -314 420 -465 914 -467 259 0
421 31 595 114 202 97 319 253 372 495 13 58 16 182 20 713 l5 642 -271 0
-271 0 0 -517 c0 -571 -6 -665 -44 -749 -35 -75 -130 -167 -215 -208 -63 -29
-72 -31 -186 -31 -113 0 -124 2 -185 31 -83 39 -177 131 -216 210 l-29 59 -3
603 -3 602 -275 0 -276 0 5 -642z"/>
</g>
</svg>
